<?xml version="1.0" encoding="utf-8"?>
<!-- Generator: Adobe Illustrator 19.1.0, SVG Export Plug-In . SVG Version: 6.00 Build 0)  -->
<svg version="1.1" id="Layer_1" xmlns="http://www.w3.org/2000/svg" xmlns:xlink="http://www.w3.org/1999/xlink" x="0px" y="0px"
	 viewBox="0 0 633.8 136.8" style="enable-background:new 0 0 633.8 136.8;" xml:space="preserve">
<style type="text/css">
	.st0{fill:#FFFFFF;}
	.st1{fill-rule:evenodd;clip-rule:evenodd;fill:#FFFFFF;}
</style>
<g>
	<g id="Text">
		<g>
			<path class="st0" d="M193.5,94.4h-20.8v-53h17.8c7,0,12.6,1.3,16.7,3.8c2.5,1.5,4.6,3.6,6.4,6.1c3.2,4.5,4.8,10,4.8,16.4
				c0,8.1-2.3,14.5-6.8,19.4C207,92,201,94.4,193.5,94.4z M186.2,53.4v29h5.8c8.6,0,13-4.8,13-14.3c0-4.7-1.1-8.3-3.3-10.9
				s-5.4-3.8-9.5-3.8H186.2z"/>
			<path class="st0" d="M236.6,94.4h-11.9V54.6H236v4.2c2.1-3.7,5.3-5.6,9.6-5.6h0.3v12c-3.4,0.1-5.8,0.6-7.2,1.7
				c-1.4,1.1-2.1,2.9-2.1,5.5V94.4z"/>
			<path class="st0" d="M270.1,95.7c-6.2,0-11.3-2-15.4-6c-4.1-4-6.1-9-6.1-15c0-6.2,2-11.3,6.1-15.4c4.1-4.1,9.2-6.1,15.4-6.1
				c6.1,0,11.3,2,15.3,6c4.1,4,6.1,9.1,6.1,15.2c0,6.1-2,11.2-6.1,15.2C281.3,93.7,276.2,95.7,270.1,95.7z M270.1,64.3
				c-2.7,0-5,1-6.8,2.9c-1.9,2-2.8,4.3-2.8,7.2c0,2.9,0.9,5.4,2.7,7.3c1.8,2,4.1,2.9,6.9,2.9c2.7,0,5-1,6.8-2.9
				c1.8-2,2.7-4.4,2.7-7.3c0-2.8-0.9-5.2-2.7-7.2C275,65.3,272.8,64.3,270.1,64.3z"/>
			<path class="st0" d="M309.6,94.4h-11.9V54.6H309v4.2c2.6-3.7,6.2-5.6,10.9-5.6c4.3,0,7.9,1.4,10.7,4.1c1.5,1.5,2.6,3.1,3.1,4.8
				c0.6,1.7,0.8,4.1,0.8,7.4v24.9h-11.9V72.6c0-5.5-2.1-8.3-6.2-8.3c-4.5,0-6.8,2.6-6.8,7.8V94.4z"/>
			<path class="st0" d="M368,82.5l0.6-0.6h12.1c-1.9,4.3-4.5,7.7-7.9,10.1c-3.4,2.4-7.2,3.7-11.4,3.7c-5.8,0-10.8-2.1-14.8-6.2
				s-6.1-9.1-6.1-15c0-5.9,2-11,6-15.1c4-4.1,8.9-6.2,14.6-6.2c5.9,0,10.9,2.1,14.9,6.2c4,4.2,6,9.3,6,15.5c0,1-0.1,2-0.3,3.3h-29.8
				c0.3,2.2,1.2,4,2.8,5.4c1.6,1.4,3.6,2,5.9,2C363.3,85.6,365.7,84.6,368,82.5z M352.2,70.3h17.9c-0.4-2.1-1.5-3.7-3.1-5
				c-1.6-1.3-3.6-1.9-5.9-1.9C356.2,63.4,353.2,65.7,352.2,70.3z"/>
		</g>
		<g>
			<path class="st0" d="M406,94.4h-16.5v-53h18.8c7.3,0,13.2,2.4,17.8,7.1c5.1,5.3,7.7,11.9,7.7,19.7c0,7.5-2.2,13.6-6.7,18.5
				C422.5,91.8,415.4,94.4,406,94.4z M397.2,48.5v38.8h6.3c7.1,0,12.5-1.5,16.1-4.5c4.3-3.5,6.4-8.4,6.4-14.7
				c0-5.7-1.9-10.4-5.6-14.3c-3.5-3.5-8.1-5.3-13.7-5.3H397.2z"/>
			<path class="st0" d="M470.8,81.9h7.5c-1.5,4.1-3.9,7.4-7.4,9.9c-3.4,2.4-7.3,3.7-11.6,3.7c-5.6,0-10.3-2.1-14.3-6.2
				c-4-4.1-6-9-6-14.8c0-5.8,2-10.8,6-14.9c4-4.1,8.8-6.2,14.5-6.2c5.5,0,10.2,2,14.2,6.1c3.9,4.1,5.9,8.9,5.9,14.6
				c0,0.8-0.1,2.1-0.2,3.8h-32.8c0.8,3.3,2.4,5.9,4.7,7.9c2.4,2,5.2,3,8.4,3C464.4,88.6,468.2,86.4,470.8,81.9z M449.5,64.4
				c-1.6,1.8-2.6,4.3-3.1,7.6h25.7c-0.2-3.3-1.5-6.1-4-8.4c-2.5-2.3-5.4-3.5-8.8-3.5C455.3,60.1,452.1,61.6,449.5,64.4z"/>
			<path class="st0" d="M494,107.7h-7.2v-53h6.9v6.1c3.2-4.8,7.9-7.2,14.1-7.2c5.8,0,10.7,2.1,14.6,6.2c3.9,4.1,5.9,9.2,5.9,15.3
				c0,5.8-1.9,10.6-5.8,14.5c-3.9,3.9-8.6,5.9-14.3,5.9c-6.6,0-11.3-2.3-14.2-6.8V107.7z M507.6,88.7c3.8,0,6.9-1.4,9.5-4.1
				c2.6-2.7,3.9-6,3.9-9.9c0-3.9-1.3-7.2-4-10c-2.7-2.8-5.9-4.2-9.7-4.2c-3.7,0-6.8,1.4-9.4,4.1c-2.6,2.7-3.9,6-3.9,9.9
				c0,4,1.3,7.3,3.9,10.1C500.6,87.3,503.8,88.7,507.6,88.7z"/>
			<path class="st0" d="M535.7,41.4h7.4v53h-7.4V41.4z"/>
			<path class="st0" d="M571.8,53.6c5.9,0,11,2,15.2,6c4.2,4,6.3,8.9,6.3,14.6c0,5.8-2.1,10.8-6.3,14.9c-4.2,4.1-9.2,6.2-15.2,6.2
				c-5.9,0-10.9-2.1-15.1-6.2c-4.2-4.1-6.3-9.1-6.3-14.9c0-5.7,2.1-10.6,6.3-14.6C560.9,55.6,565.9,53.6,571.8,53.6z M571.8,88.6
				c3.9,0,7.2-1.4,9.9-4.1c2.7-2.8,4.1-6.1,4.1-10c0-3.8-1.4-7.1-4.1-9.9c-2.7-2.7-6-4.1-9.9-4.1c-3.9,0-7.2,1.4-9.9,4.1
				c-2.7,2.7-4.1,6-4.1,9.9c0,3.9,1.4,7.2,4.1,10C564.6,87.2,567.9,88.6,571.8,88.6z"/>
			<path class="st0" d="M625.8,54.6h8l-21.9,53h-7.7l5.8-14.1l-15.8-38.9h8l11.7,30.8L625.8,54.6z"/>
		</g>
	</g>
	<g id="Logo">
		<path class="st1" d="M30.1,54.4c0,0,11.2-8.4,14.9-7.6l56.7-0.4L73,95.3c-2.9,4.2-14,9.1-14,9.1l3.7-35.5L30.1,54.4z"/>
		<path class="st0" d="M68.4,0L68.4,0L68.4,0c18.9,0,36,7.7,48.4,20c12.4,12.4,20,29.5,20,48.4h0.1l0,0v0.1h-0.1
			c0,18.8-7.6,35.9-20,48.2c-12.4,12.4-29.4,20.1-48.4,20.1l0,0l0,0v-10.9l0,0l0,0c15.8,0,30.2-6.5,40.6-16.8
			c10.4-10.4,16.9-24.8,16.9-40.5h-0.1v-0.1l0,0h0.1c0-15.8-6.5-30.2-16.8-40.6C98.6,17.4,84.2,10.9,68.4,10.9l0,0l0,0V0z
			 M68.4,136.8L68.4,136.8L68.4,136.8c-18.9,0-36-7.7-48.4-20.1C7.6,104.4,0,87.3,0,68.5l0,0v-0.1l0,0l0,0c0-18.9,7.6-36,20-48.4
			C32.4,7.7,49.5,0,68.4,0l0,0l0,0v10.9l0,0l0,0c-15.8,0-30.2,6.4-40.6,16.8C17.4,38.2,10.9,52.6,10.9,68.4l0,0l0,0v0.1l0,0
			c0,15.8,6.4,30.1,16.8,40.5c10.4,10.4,24.8,16.8,40.6,16.8l0,0l0,0V136.8z"/>
	</g>
</g>
</svg>
