<?xml version="1.0" encoding="UTF-8"?>
<svg width="75px" height="75px" viewBox="0 0 75 75" version="1.1" xmlns="http://www.w3.org/2000/svg" xmlns:xlink="http://www.w3.org/1999/xlink">
    <!-- Generator: Sketch 40.3 (33839) - http://www.bohemiancoding.com/sketch -->
    <title>Group</title>
    <desc>Created with Sketch.</desc>
    <defs></defs>
    <g id="Page-1" stroke="none" stroke-width="1" fill="none" fill-rule="evenodd">
        <g id="Desktop-HD-Copy-2" transform="translate(-45.000000, -214.000000)">
            <g id="Group" transform="translate(45.000000, 213.000000)">
                <g id="Page-1">
                    <path d="M37.5,3.492 C18.203,3.492 2.5,19.195 2.5,38.492 C2.5,57.793 18.203,73.492 37.5,73.492 C56.797,73.492 72.5,57.793 72.5,38.492 C72.5,19.195 56.797,3.492 37.5,3.492 M0,38.492 C0,17.816 16.824,0.992 37.5,0.992 C58.176,0.992 75,17.816 75,38.492 C75,59.172 58.176,75.992 37.5,75.992 C16.824,75.992 0,59.172 0,38.492 Z" id="Fill-1" fill="#E0E0E0"></path>
                    <path d="M23.785,13.207 C27.051,14.09 29.227,12.43 31.707,10.531 C33.852,8.891 36.324,6.996 39.555,7.051 L39.559,7.051 C40.352,7.051 42.191,6.258 43.672,5.625 C44.66,5.199 45.492,4.848 46.203,4.602 C41.48,3.379 36.316,3.164 31.434,4.016 C31.617,4.594 31.629,5.328 31.469,6.223 C31.012,8.766 28.734,9.961 26.727,11.02 C25.09,11.879 24.117,12.469 23.785,13.207 L23.785,13.207 Z M36.75,22.605 C37.637,22.969 38.477,23.254 38.812,23.195 C39.637,22.895 39.945,21.973 40.039,21.59 C40.219,20.852 40.137,20.09 39.836,19.516 C39.719,19.707 39.594,19.922 39.496,20.094 C38.879,21.18 38.113,22.512 36.75,22.605 L36.75,22.605 Z M47.641,33.41 C48.102,33.41 48.5,33.508 48.855,33.695 C49.957,34.281 50.152,35.449 50.324,36.477 C50.441,37.156 50.559,37.855 50.902,38.383 C52.543,40.859 55.879,43.488 58.848,43.488 L58.875,43.488 C60.445,43.477 61.688,42.734 62.668,41.211 C62.75,41.02 62.883,40.09 62.98,39.41 C63.359,36.785 63.789,33.805 65.895,33.258 C67.762,32.77 69.477,34.688 70.609,36.168 C70.688,36.27 70.754,36.352 70.816,36.426 C71.012,35.312 71.023,33.266 71.031,32.047 C71.039,30.781 71.047,29.672 71.152,28.875 C68.145,18.344 60.414,10.059 50.664,6.078 C51.281,7.164 51.512,8.543 51.312,10.086 C50.953,12.832 49.141,16.156 46.719,16.973 C45.457,17.398 44.23,17.082 43.258,16.098 C42.508,15.344 41.695,15.168 40.781,15.57 C40.277,15.793 39.773,16.188 39.328,16.715 C39.422,16.688 39.523,16.668 39.629,16.656 C40.066,16.602 40.715,16.688 41.352,17.367 C42.473,18.562 42.898,20.406 42.469,22.18 C42.074,23.797 41.016,25.059 39.629,25.555 C38.324,26.02 36.578,25.301 33.855,24.062 C33.094,23.715 31.973,23.203 31.195,22.945 C31.211,22.977 31.223,23.008 31.234,23.035 C32.594,26.281 30.91,29.102 29.906,30.789 C29.902,30.793 29.898,30.801 29.895,30.805 C30.426,30.723 31.199,30.566 32.328,30.297 C36.078,29.398 37.043,31.125 37.711,32.969 C37.961,33.656 38.176,34.25 38.672,34.633 C38.676,34.633 38.68,34.637 38.684,34.637 C38.703,34.57 38.727,34.504 38.742,34.445 C38.961,33.738 39.23,32.855 40.078,32.441 C40.422,32.273 40.984,32.133 41.715,32.414 C43.141,32.965 43.586,33.922 43.742,34.648 C43.961,34.559 44.242,34.441 44.602,34.273 C45.875,33.691 46.852,33.41 47.641,33.41 L47.641,33.41 Z M58.844,45.988 C54.785,45.988 50.805,42.766 48.816,39.758 C48.18,38.793 48.004,37.738 47.859,36.895 C47.809,36.574 47.73,36.109 47.645,35.91 C47.469,35.902 46.93,35.957 45.645,36.543 C43.953,37.328 43,37.617 42.184,37.141 C41.441,36.707 41.375,35.93 41.34,35.512 C41.316,35.223 41.305,35.07 41.199,34.961 C41.176,35.035 41.152,35.113 41.133,35.176 C40.902,35.922 40.59,36.945 39.551,37.277 C38.469,37.629 37.477,36.863 37.148,36.613 C36.074,35.785 35.68,34.695 35.359,33.82 C34.898,32.543 34.805,32.277 32.91,32.73 C29.5,33.543 27.949,33.719 27.176,32.664 C26.457,31.688 27.09,30.629 27.758,29.508 C28.668,27.98 29.801,26.082 28.93,24.004 C28.68,23.41 28.008,21.82 29.039,20.816 C30.227,19.664 32.184,20.555 34.891,21.789 C35.086,21.875 35.301,21.973 35.527,22.074 C35.395,21.883 35.312,21.656 35.301,21.41 C35.16,17.898 37.039,14.48 39.777,13.281 C41.633,12.465 43.551,12.852 45.031,14.336 C45.383,14.688 45.637,14.695 45.922,14.602 C47.047,14.223 48.531,12.074 48.832,9.762 C48.941,8.941 48.957,7.488 47.965,6.691 C47.348,6.766 45.742,7.453 44.66,7.922 C42.707,8.758 40.867,9.551 39.559,9.551 L39.508,9.551 C37.105,9.551 35.223,10.992 33.227,12.516 C30.336,14.727 27.062,17.234 21.957,15.23 C21.508,15.055 21.203,14.641 21.164,14.164 C20.938,11.238 23.5,9.891 25.562,8.805 C27.211,7.938 28.766,7.121 29.008,5.777 C29.059,5.512 29.078,5.309 29.082,5.16 C28.426,5.402 26.922,6.309 23.582,9.387 C22.852,10.062 22.555,10.34 21.91,10.215 C21.344,10.105 20.926,9.621 20.898,9.047 C20.875,8.488 21.098,7.848 21.492,6.766 C21.73,6.117 22,5.383 22.074,4.922 C22.145,4.504 22.426,4.148 22.82,3.98 C27.469,2 32.41,0.992 37.5,0.992 C54.289,0.992 69.148,12.289 73.633,28.461 C73.684,28.641 73.691,28.832 73.656,29.016 C73.551,29.613 73.539,30.855 73.531,32.062 C73.504,36.168 73.402,38.715 71.688,39.289 C70.223,39.777 69.062,38.258 68.625,37.688 C67.133,35.734 66.496,35.68 66.488,35.68 C65.996,36.023 65.602,38.742 65.453,39.766 C65.242,41.234 65.117,42.027 64.77,42.566 C63.336,44.789 61.301,45.973 58.891,45.988 L58.844,45.988 Z" id="Fill-2" fill="#DEDEDE"></path>
                    <path d="M25.785,71.477 C32.062,73.711 38.965,74.086 45.434,72.59 L46.25,67.723 C46.301,67.422 46.457,67.148 46.695,66.961 L50.73,63.684 L51.891,60.059 L44.57,60.031 C44.117,60.027 43.699,59.781 43.48,59.387 L41.434,55.684 L35.32,51.102 L31.281,51.262 C31.141,51.266 30.992,51.246 30.855,51.207 L26.207,49.742 C26.09,49.703 25.977,49.648 25.875,49.578 L22.688,47.383 L15.109,49.133 L12.109,50.586 L8.844,54.984 L10,60.129 C10.262,60.461 10.527,60.789 10.801,61.109 L17.395,64.188 L21.938,64.801 C22.352,64.859 22.711,65.117 22.891,65.492 L25.707,71.27 C25.738,71.336 25.766,71.406 25.785,71.477 M37.5,75.992 C32.941,75.992 28.477,75.18 24.227,73.566 C23.801,73.406 23.496,73.027 23.43,72.578 L23.375,72.191 L20.938,67.188 L16.871,66.641 C16.746,66.621 16.621,66.586 16.508,66.535 L9.5,63.262 C9.336,63.188 9.195,63.078 9.078,62.945 C8.656,62.453 8.25,61.953 7.852,61.445 C7.738,61.301 7.66,61.129 7.621,60.953 L6.281,54.969 C6.199,54.617 6.281,54.242 6.496,53.953 L10.285,48.852 C10.402,48.688 10.562,48.559 10.742,48.469 L14.145,46.82 C14.23,46.781 14.32,46.75 14.41,46.73 L22.664,44.824 C23.004,44.742 23.363,44.812 23.652,45.012 L27.137,47.414 L31.398,48.754 L35.664,48.586 C35.957,48.582 36.23,48.664 36.461,48.836 L43.148,53.844 C43.289,53.953 43.406,54.086 43.492,54.242 L45.312,57.535 L53.605,57.566 C54.004,57.57 54.379,57.762 54.613,58.082 C54.848,58.406 54.914,58.82 54.793,59.199 L52.996,64.801 C52.922,65.031 52.781,65.238 52.594,65.391 L48.637,68.602 L47.762,73.816 C47.68,74.305 47.32,74.699 46.84,74.82 C43.805,75.598 40.66,75.992 37.5,75.992" id="Fill-5" fill="#DEDEDE"></path>
                    <path d="M1.77,45.621 C1.402,45.621 1.043,45.473 0.801,45.176 C0.371,44.645 0.414,43.895 0.938,43.457 C0.949,43.449 1.023,43.387 1.035,43.379 C1.668,42.75 2.258,42.305 2.777,41.914 C3.688,41.227 4.406,40.684 5.16,39.328 C5.66,38.43 5.602,38.203 5.383,37.367 C5.168,36.535 4.867,35.395 5.004,33.367 C5.129,31.48 5.074,30.992 5.012,30.477 C4.938,29.84 4.863,29.188 5.004,26.891 C5.141,24.719 4.793,24.461 4.031,23.898 C3.477,23.488 3.359,22.703 3.77,22.148 C4.176,21.594 4.961,21.477 5.516,21.887 C7.008,22.992 7.688,24.043 7.5,27.047 C7.371,29.117 7.434,29.66 7.496,30.184 C7.566,30.789 7.641,31.414 7.5,33.535 C7.391,35.156 7.609,35.996 7.801,36.734 C8.121,37.961 8.262,38.891 7.344,40.543 C6.332,42.363 5.289,43.148 4.281,43.91 C3.785,44.285 3.312,44.641 2.812,45.141 C2.738,45.215 2.66,45.281 2.578,45.344 C2.34,45.531 2.055,45.621 1.77,45.621" id="Fill-6" fill="#DEDEDE"></path>
                    <path d="M38.305,59.27 L36.344,57.719 C42.629,49.777 48.285,40.195 53.152,29.238 L55.438,30.25 C50.484,41.402 44.719,51.164 38.305,59.27" id="Fill-7" fill="#DEDEDE"></path>
                    <path d="M59.523,20.176 L57.18,19.312 C59.102,14.09 60.035,10.695 60.043,10.664 L62.457,11.324 C62.418,11.465 61.488,14.844 59.523,20.176" id="Fill-8" fill="#DEDEDE"></path>
                    <path d="M68.75,57.242 C49.988,57.242 32.105,44.527 20.41,33.859 L22.094,32.012 C33.465,42.383 50.789,54.742 68.75,54.742 L68.75,57.242 Z" id="Fill-9" fill="#DEDEDE"></path>
                    <path d="M13.246,26.859 C9.035,22.457 6.617,19.395 6.516,19.266 L8.48,17.719 C8.508,17.75 10.93,20.824 15.051,25.129 L13.246,26.859 Z" id="Fill-10" fill="#DEDEDE"></path>
                    <path d="M17.5,25.992 C15.434,25.992 13.75,27.676 13.75,29.742 C13.75,31.812 15.434,33.492 17.5,33.492 C19.566,33.492 21.25,31.812 21.25,29.742 C21.25,27.676 19.566,25.992 17.5,25.992 M17.5,35.992 C14.055,35.992 11.25,33.191 11.25,29.742 C11.25,26.297 14.055,23.492 17.5,23.492 C20.945,23.492 23.75,26.297 23.75,29.742 C23.75,33.191 20.945,35.992 17.5,35.992" id="Fill-11" fill="#2196F3"></path>
                    <path d="M56.25,20.992 C54.184,20.992 52.5,22.676 52.5,24.742 C52.5,26.812 54.184,28.492 56.25,28.492 C58.316,28.492 60,26.812 60,24.742 C60,22.676 58.316,20.992 56.25,20.992 M56.25,30.992 C52.805,30.992 50,28.191 50,24.742 C50,21.297 52.805,18.492 56.25,18.492 C59.695,18.492 62.5,21.297 62.5,24.742 C62.5,28.191 59.695,30.992 56.25,30.992" id="Fill-12" fill="#FF4081"></path>
                    <path d="M33.75,58.492 C31.684,58.492 30,60.176 30,62.242 C30,64.312 31.684,65.992 33.75,65.992 C35.816,65.992 37.5,64.312 37.5,62.242 C37.5,60.176 35.816,58.492 33.75,58.492 M33.75,68.492 C30.305,68.492 27.5,65.691 27.5,62.242 C27.5,58.797 30.305,55.992 33.75,55.992 C37.195,55.992 40,58.797 40,62.242 C40,65.691 37.195,68.492 33.75,68.492" id="Fill-13" fill="#2196F3"></path>
                    <path d="M24.523,73.227 L22.977,71.262 C25.301,69.43 27.605,67.363 29.824,65.117 L31.602,66.871 C29.312,69.191 26.93,71.328 24.523,73.227" id="Fill-14" fill="#DEDEDE"></path>
                </g>
                <circle id="Oval" fill="#2196F3" cx="18" cy="30" r="7"></circle>
                <circle id="Oval-Copy" fill="#2196F3" cx="56" cy="25" r="7"></circle>
                <circle id="Oval-Copy-2" fill="#2196F3" cx="34" cy="62" r="7"></circle>
            </g>
        </g>
    </g>
</svg>