<?xml version="1.0" encoding="UTF-8" standalone="no"?>
<svg width="21px" height="20px" viewBox="0 0 21 20" version="1.1" xmlns="http://www.w3.org/2000/svg" xmlns:xlink="http://www.w3.org/1999/xlink">
    <!-- Generator: Sketch 3.7.2 (28276) - http://www.bohemiancoding.com/sketch -->
    <title>linkedin-icn copy 3</title>
    <desc>Created with Sketch.</desc>
    <defs></defs>
    <g id="Page-1" stroke="none" stroke-width="1" fill="none" fill-rule="evenodd">
        <g id="Desktop-HD-Copy" transform="translate(-906.000000, -4826.000000)" fill="#4A4A4A">
            <g id="linkedin-icn-copy-3" transform="translate(906.000000, 4826.000000)">
                <g id="Layer_1">
                    <g id="Group">
                        <path d="M2.53623188,0 C1,0 0,1 0,2.33333333 C0,3.62318841 0.971014493,4.65217391 2.47826087,4.65217391 L2.50724638,4.65217391 L2.50724638,4.65217391 C4.07246377,4.65217391 5.04347826,3.62318841 5.04347826,2.31884058 C5.01449275,1 4.05797101,0 2.53623188,0 L2.53623188,0 Z" id="Shape"></path>
                        <rect id="Rectangle-path" x="0.260869565" y="6.49275362" width="4.47826087" height="13.4637681"></rect>
                        <path d="M15.7246377,6.17391304 C13.3478261,6.17391304 12.2898551,7.47826087 11.6956522,8.4057971 L11.6956522,6.49275362 L7.2173913,6.49275362 C7.27536232,7.75362319 7.2173913,19.9565217 7.2173913,19.9565217 L11.6956522,19.9565217 L11.6956522,12.4347826 C11.6956522,12.0289855 11.7246377,11.6231884 11.8405797,11.3333333 C12.1594203,10.5362319 12.8985507,9.71014493 14.1304348,9.71014493 C15.7536232,9.71014493 16.3913043,10.942029 16.3913043,12.7536232 L16.3913043,19.9565217 L20.8695652,19.9565217 L20.8695652,12.2463768 C20.884058,8.10144928 18.6666667,6.17391304 15.7246377,6.17391304 L15.7246377,6.17391304 Z" id="Shape"></path>
                    </g>
                </g>
            </g>
        </g>
    </g>
</svg>