<?xml version="1.0" encoding="UTF-8" standalone="no"?>
<svg width="75px" height="55px" viewBox="0 0 75 55" version="1.1" xmlns="http://www.w3.org/2000/svg" xmlns:xlink="http://www.w3.org/1999/xlink">
    <!-- Generator: Sketch 3.8.1 (29687) - http://www.bohemiancoding.com/sketch -->
    <title>Page 1</title>
    <desc>Created with Sketch.</desc>
    <defs></defs>
    <g id="Page-1" stroke="none" stroke-width="1" fill="none" fill-rule="evenodd">
        <path d="M71.703,7.637 C73.523,7.637 75,6.144 75,4.301 C75,2.461 73.523,0.969 71.703,0.969 L3.297,0.969 C1.477,0.969 0,2.461 0,4.301 C0,6.144 1.477,7.637 3.297,7.637 L71.703,7.637 Z M71.703,31.316 C73.523,31.316 75,29.824 75,27.984 C75,26.144 73.523,24.652 71.703,24.652 L3.297,24.652 C1.477,24.652 0,26.144 0,27.984 C0,29.824 1.477,31.316 3.297,31.316 L71.703,31.316 Z M71.703,55 C73.523,55 75,53.508 75,51.664 C75,49.824 73.523,48.332 71.703,48.332 L3.297,48.332 C1.477,48.332 0,49.824 0,51.664 C0,53.508 1.477,55 3.297,55 L71.703,55 Z" fill="#FFFFFF"></path>
    </g>
</svg>