<?xml version="1.0" encoding="UTF-8" standalone="no"?>
<svg width="75px" height="74px" viewBox="0 0 75 74" version="1.1" xmlns="http://www.w3.org/2000/svg" xmlns:xlink="http://www.w3.org/1999/xlink">
    <!-- Generator: Sketch 40.3 (33839) - http://www.bohemiancoding.com/sketch -->
    <title>Group 3</title>
    <desc>Created with Sketch.</desc>
    <defs></defs>
    <g id="Page-1" stroke="none" stroke-width="1" fill="none" fill-rule="evenodd">
        <g id="Desktop-HD" transform="translate(-472.000000, -215.000000)">
            <g id="Group-3" transform="translate(472.000000, 215.000000)">
                <g id="Page-1">
                    <path d="M6.54965753,9.32605556 C7.32020548,9.32605556 7.93869863,9.17394444 8.55205479,8.86458333 C11.0167808,13.2562778 20.2633562,29.6010278 21.1140411,30.9854444 C21.884589,32.1416944 23.040411,32.8364722 24.5815068,32.8364722 L29.2808219,32.8364722 L30.5126712,32.8364722 C31.0510274,33.9166667 32.2068493,34.6875 33.5188356,34.6875 C35.3691781,34.6875 36.910274,33.1458333 36.910274,31.2948056 C36.910274,29.4437778 35.3691781,27.9021111 33.5188356,27.9021111 C31.9017123,27.9021111 30.5126712,29.0583611 30.2034247,30.6000278 L24.6575342,30.6000278 C23.6537671,30.6000278 23.2684932,30.1385556 23.1164384,29.7531389 C22.269863,28.3646111 12.3287671,10.8677222 10.3263699,7.32291667 C10.7876712,6.62813889 11.0969178,5.70519444 11.0969178,4.77711111 C11.0969178,2.23233333 9.01746575,0.229194444 6.54965753,0.229194444 C4.0859589,0.229194444 2.00239726,2.30838889 2.00239726,4.77711111 C2.00239726,7.24275 4.00479452,9.32605556 6.54965753,9.32605556 L6.54965753,9.32605556 Z M6.54965753,2.46461111 C7.78150685,2.46461111 8.78527397,3.46875 8.78527397,4.70105556 C8.78527397,5.93336111 7.78150685,6.9375 6.54965753,6.9375 C5.31780822,6.9375 4.3140411,5.93336111 4.3140411,4.70105556 C4.3140411,3.46875 5.31780822,2.46461111 6.54965753,2.46461111 L6.54965753,2.46461111 Z" id="Fill-1" fill="#B7B7B7"></path>
                    <path d="M5.16061644,45.1698056 C7.24006849,45.1698056 9.09041096,43.7041944 9.55171233,41.7771111 L20.1863014,41.7771111 C20.6486301,43.0865 21.8804795,44.0135556 23.3455479,44.0135556 C25.194863,44.0135556 26.7359589,42.4718889 26.7359589,40.6208611 C26.7359589,38.7708611 25.194863,37.2291944 23.3455479,37.2291944 C21.8804795,37.2291944 20.6486301,38.1521389 20.1863014,39.4646111 L9.55582192,39.4646111 C9.01746575,37.5375278 7.24417808,36.0729444 5.16472603,36.0729444 C2.62089041,36.0729444 0.618493151,38.1521389 0.618493151,40.6208611 C0.618493151,43.0865 2.62089041,45.1698056 5.16061644,45.1698056 L5.16061644,45.1698056 Z M5.16061644,38.3083611 C6.39349315,38.3083611 7.39623288,39.3125 7.39623288,40.5448056 C7.39623288,41.7771111 6.39349315,42.78125 5.16061644,42.78125 C3.92876712,42.78125 2.9260274,41.7771111 2.9260274,40.5448056 C2.93013699,39.3125 3.92876712,38.3083611 5.16061644,38.3083611 L5.16061644,38.3083611 Z" id="Fill-2" fill="#B7B7B7"></path>
                    <path d="M20.1863014,50.4895833 C20.6486301,51.7979444 21.8804795,52.7260278 23.3455479,52.7260278 C25.194863,52.7260278 26.7359589,51.1843611 26.7359589,49.3333333 C26.7359589,47.4823056 25.194863,45.9406389 23.3455479,45.9406389 C21.8804795,45.9406389 20.6486301,46.8646111 20.1863014,48.1770833 L16.4866438,48.1770833 C15.9482877,46.25 14.175,44.7843889 12.0955479,44.7843889 C9.55171233,44.7843889 7.54931507,46.8646111 7.54931507,49.3333333 C7.54931507,51.7979444 9.62773973,53.8822778 12.0955479,53.8822778 C14.175,53.8822778 16.0253425,52.4166667 16.4866438,50.4895833 L20.1863014,50.4895833 Z M12.0955479,51.5697778 C10.8636986,51.5697778 9.8609589,50.5656389 9.8609589,49.3333333 C9.8609589,48.1010278 10.8636986,47.0968889 12.0955479,47.0968889 C13.3284247,47.0968889 14.3311644,48.1010278 14.3311644,49.3333333 C14.3311644,50.5656389 13.3325342,51.5697778 12.0955479,51.5697778 L12.0955479,51.5697778 Z" id="Fill-3" fill="#B7B7B7"></path>
                    <path d="M58.6376712,64.5978889 L58.6376712,63.9031111 C58.6376712,62.2853889 58.6376712,57.1978889 53.0116438,57.1978889 C50.4667808,57.1978889 47.6178082,57.1978889 46.3849315,57.2749722 C45.9236301,55.9655833 44.6917808,55.0385278 43.2267123,55.0385278 C41.3763699,55.0385278 39.835274,56.5801944 39.835274,58.4312222 C39.835274,60.2812222 41.3763699,61.8228889 43.2267123,61.8228889 C44.6917808,61.8228889 45.9236301,60.8999444 46.4619863,59.5874722 C47.769863,59.5874722 50.6229452,59.5103889 53.0876712,59.5103889 C55.1660959,59.5103889 56.4020548,60.2051667 56.4020548,63.9031111 L56.4020548,64.6739444 C54.4756849,65.2114722 53.0876712,66.9864444 53.0876712,69.0656389 C53.0876712,71.6114444 55.1660959,73.6145833 57.6349315,73.6145833 C60.0986301,73.6145833 62.1811644,71.5353889 62.1811644,69.0656389 C62.1811644,66.9103889 60.6400685,65.0593611 58.6376712,64.5978889 L58.6376712,64.5978889 Z M57.6390411,71.3020833 C56.4061644,71.3020833 55.4034247,70.2979444 55.4034247,69.0656389 C55.4034247,67.8333333 56.4061644,66.8291944 57.6390411,66.8291944 C58.8708904,66.8291944 59.8736301,67.8333333 59.8736301,69.0656389 C59.8695205,70.2979444 58.8708904,71.3020833 57.6390411,71.3020833 L57.6390411,71.3020833 Z" id="Fill-4" fill="#B7B7B7"></path>
                    <path d="M53.1678082,43.9375 C54.4756849,43.9375 55.6315068,43.1666667 56.1739726,42.0864722 L63.3410959,42.0864722 C68.5828767,42.0864722 68.5828767,37.4614722 68.5828767,35.9198056 L68.5828767,23.5104167 C70.4332192,23.0489444 71.8171233,21.3500278 71.8171233,19.3468889 C71.8171233,17.0343889 69.8907534,15.1073056 67.5791096,15.1073056 C65.2674658,15.1073056 63.3410959,17.0343889 63.3410959,19.3468889 C63.3410959,21.2739722 64.5739726,22.8916944 66.3472603,23.4343611 L66.3472603,35.9198056 C66.3472603,39.1562778 65.3445205,39.7739722 63.4181507,39.7739722 L56.5592466,39.7739722 C56.25,38.2323056 54.8650685,37.0760556 53.2438356,37.0760556 C51.3934932,37.0760556 49.8523973,38.6177222 49.8523973,40.46875 C49.7003425,42.3958333 51.2414384,43.9375 53.1678082,43.9375 L53.1678082,43.9375 Z M65.5726027,19.4229444 C65.5726027,18.3437778 66.4191781,17.4958611 67.4989726,17.4958611 C68.5787671,17.4958611 69.4253425,18.3437778 69.4253425,19.4229444 C69.4253425,20.5031389 68.5787671,21.3500278 67.4989726,21.3500278 C66.5003425,21.3500278 65.5726027,20.5031389 65.5726027,19.4229444 L65.5726027,19.4229444 Z" id="Fill-5" fill="#B7B7B7"></path>
                    <path d="M70.4291096,45.0176944 C68.3496575,45.0176944 66.5003425,46.4833056 66.0380137,48.4103889 L56.1739726,48.4103889 C55.7126712,47.101 54.4797945,46.1739444 53.0157534,46.1739444 C51.165411,46.1739444 49.6243151,47.7156111 49.6243151,49.5666389 C49.6243151,51.4166389 51.165411,52.9583056 53.0157534,52.9583056 C54.4797945,52.9583056 55.7126712,52.0353611 56.1739726,50.7228889 L66.0380137,50.7228889 C66.5763699,52.6499722 68.3496575,54.1145556 70.4291096,54.1145556 C72.8928082,54.1104444 74.9763699,52.1073056 74.9763699,49.5666389 C74.9763699,47.0208333 72.8969178,45.0176944 70.4291096,45.0176944 Z M70.4291096,51.7979444 C69.1972603,51.7979444 68.1934932,50.7948333 68.1934932,49.5625278 C68.1934932,48.3291944 69.1972603,47.3260833 70.4291096,47.3260833 C71.6609589,47.3260833 72.664726,48.3291944 72.664726,49.5625278 C72.664726,50.7989444 71.6609589,51.7979444 70.4291096,51.7979444 L70.4291096,51.7979444 Z" id="Fill-6" fill="#B7B7B7"></path>
                    <path d="M33.4428082,36.3812778 C30.7458904,36.3812778 28.5863014,38.5416667 28.5863014,41.2395833 L28.5863014,48.4103889 C28.5863014,51.1083056 30.7458904,53.2676667 33.4428082,53.2676667 L42.8414384,53.2676667 C45.5383562,53.2676667 47.6979452,51.1083056 47.6979452,48.4103889 L47.6979452,41.2395833 C47.6979452,38.5416667 45.5383562,36.3812778 42.8414384,36.3812778 L33.4428082,36.3812778 Z" id="Fill-7" fill="#2196F3"></path>
                    <path d="M30.8219178,17.8812778 C32.9003425,17.8812778 34.6746575,16.49275 35.2119863,14.5656667 L39.5270548,14.5656667 C40.7589041,14.5656667 41.3763699,15.1833611 41.3763699,16.4166944 L41.3763699,28.2114722 C40.1445205,28.7500278 39.2979452,29.9062778 39.2979452,31.3708611 C39.2979452,33.2218889 40.8390411,34.7635556 42.6893836,34.7635556 C44.539726,34.7635556 46.0808219,33.2218889 46.0808219,31.3708611 C46.0808219,29.8291944 45.0770548,28.5968889 43.6921233,28.1354167 L43.6921233,16.4968611 C43.6921233,14.0312222 41.9989726,12.3333333 39.5311644,12.3333333 L35.2931507,12.3333333 C34.8308219,10.3301944 32.9815068,8.86458333 30.8219178,8.86458333 C28.2770548,8.86458333 26.2746575,10.9437778 26.2746575,13.4135278 C26.2746575,15.8020833 28.3582192,17.8812778 30.8219178,17.8812778 L30.8219178,17.8812778 Z M30.8219178,11.0249722 C32.0537671,11.0249722 33.0575342,12.0280833 33.0575342,13.2603889 C33.0575342,14.4937222 32.0537671,15.4968333 30.8219178,15.4968333 C29.5900685,15.4968333 28.5863014,14.4937222 28.5863014,13.2603889 C28.5863014,12.0239722 29.5900685,11.0249722 30.8219178,11.0249722 L30.8219178,11.0249722 Z" id="Fill-8" fill="#B7B7B7"></path>
                    <path d="M33.3667808,55.0385278 C31.9777397,55.0385278 30.7458904,55.8854167 30.284589,57.0416667 L25.5842466,57.0416667 C23.9671233,57.0416667 20.5756849,57.0416667 20.5756849,61.5906111 L20.5756849,63.1322778 C18.5732877,63.59375 17.1082192,65.4447778 17.1082192,67.5239722 C17.1082192,70.0697778 19.1876712,72.0729167 21.6554795,72.0729167 C24.1202055,72.0729167 26.2027397,69.9937222 26.2027397,67.5239722 C26.2027397,65.4447778 24.8136986,63.6698056 22.8873288,63.1322778 C22.8873288,62.6708056 22.8113014,62.1281389 22.8113014,61.5906111 C22.8113014,59.5103889 23.5058219,59.3541667 25.5082192,59.3541667 L30.0554795,59.3541667 C30.4407534,60.8197778 31.7486301,61.8187778 33.289726,61.8187778 C35.1400685,61.8187778 36.6811644,60.2771111 36.6811644,58.4271111 C36.8342466,56.5801944 35.2931507,55.0385278 33.3667808,55.0385278 L33.3667808,55.0385278 Z M23.9630137,67.5239722 C23.9630137,68.7562778 22.960274,69.7604167 21.7273973,69.7604167 C20.4955479,69.7604167 19.4928082,68.7562778 19.4928082,67.5239722 C19.4928082,66.2916667 20.4955479,65.2875278 21.7273973,65.2875278 C22.960274,65.2875278 23.9630137,66.2916667 23.9630137,67.5239722 L23.9630137,67.5239722 Z" id="Fill-9" fill="#B7B7B7"></path>
                </g>
            </g>
        </g>
    </g>
</svg>