<?xml version="1.0" encoding="utf-8"?>
<!-- Generator: Adobe Illustrator 19.1.0, SVG Export Plug-In . SVG Version: 6.00 Build 0)  -->
<svg version="1.1" id="Layer_1" xmlns="http://www.w3.org/2000/svg" xmlns:xlink="http://www.w3.org/1999/xlink" x="0px" y="0px"
	 viewBox="0 0 26.9 30.5" style="enable-background:new 0 0 26.9 30.5;" xml:space="preserve">
<style type="text/css">
	.st0{fill:#5B6E85;}
</style>
<g>
	<path class="st0" d="M26,6.9C26,6.9,25.9,6.9,26,6.9L14.5,0.3l-0.2-0.1C14.1,0.1,13.8,0,13.5,0c-0.3,0-0.6,0.1-0.9,0.2l-0.2,0.1
		L1,6.9c0,0-0.1,0-0.1,0.1C0.4,7.3,0,7.9,0,8.6v13.3c0,0.7,0.4,1.3,0.9,1.6L1,23.6l11.4,6.6l0.2,0.1c0.3,0.1,0.6,0.2,0.9,0.2
		c0.3,0,0.6-0.1,0.9-0.2l0.2-0.1l11.4-6.6l0.1-0.1c0.5-0.3,0.9-0.9,0.9-1.6V8.6C26.9,7.9,26.5,7.3,26,6.9z M17.2,14.8h-2.4v8.7h-3.6
		v-8.7H9.4v-3h1.8V10c0-2.4,1-3.9,3.9-3.9h2.4v3H16c-1.1,0-1.2,0.4-1.2,1.2l0,1.5h2.7L17.2,14.8z"/>
</g>
</svg>
