<?xml version="1.0" encoding="utf-8"?>
<!-- Generator: Adobe Illustrator 19.1.0, SVG Export Plug-In . SVG Version: 6.00 Build 0)  -->
<svg version="1.1" id="Layer_1" xmlns="http://www.w3.org/2000/svg" xmlns:xlink="http://www.w3.org/1999/xlink" x="0px" y="0px"
	 viewBox="0 0 26.9 30.5" style="enable-background:new 0 0 26.9 30.5;" xml:space="preserve">
<style type="text/css">
	.st0{fill:#5C6F83;}
</style>
<path class="st0" d="M26,6.9C26,6.9,25.9,6.9,26,6.9L14.5,0.3l-0.2-0.1C14.1,0.1,13.8,0,13.5,0c-0.3,0-0.6,0.1-0.9,0.2l-0.2,0.1
	L1,6.9c0,0-0.1,0-0.1,0.1C0.4,7.3,0,7.9,0,8.6v13.3c0,0.7,0.4,1.3,0.9,1.6L1,23.6l11.4,6.6l0.2,0.1c0.3,0.1,0.6,0.2,0.9,0.2
	c0.3,0,0.6-0.1,0.9-0.2l0.2-0.1l11.4-6.6l0.1-0.1c0.5-0.3,0.9-0.9,0.9-1.6V8.6C26.9,7.9,26.5,7.3,26,6.9z M21.9,11.6
	c0.3,5.7-4,12-11.5,12c-2.3,0-4.4-0.7-6.2-1.8c2.1,0.3,4.3-0.3,6-1.7c-1.8,0-3.3-1.2-3.8-2.8c0.6,0.1,1.3,0.1,1.8-0.1
	c-2-0.4-3.3-2.1-3.2-4c0.5,0.3,1.2,0.5,1.8,0.5c-1.8-1.2-2.3-3.6-1.3-5.4c2,2.5,5,4.1,8.4,4.2c-0.6-2.5,1.3-5,3.9-5
	c1.2,0,2.2,0.5,3,1.3c0.9-0.2,1.8-0.5,2.6-1c-0.3,0.9-0.9,1.7-1.8,2.2c0.8-0.1,1.6-0.3,2.3-0.6C23.4,10.3,22.7,11,21.9,11.6z"/>
</svg>
