<?xml version="1.0" encoding="UTF-8" standalone="no"?>
<svg width="61px" height="75px" viewBox="0 0 61 75" version="1.1" xmlns="http://www.w3.org/2000/svg" xmlns:xlink="http://www.w3.org/1999/xlink">
    <!-- Generator: Sketch 40.3 (33839) - http://www.bohemiancoding.com/sketch -->
    <title>Group 2</title>
    <desc>Created with Sketch.</desc>
    <defs></defs>
    <g id="Page-1" stroke="none" stroke-width="1" fill="none" fill-rule="evenodd">
        <g id="Desktop-HD" transform="translate(-278.000000, -215.000000)">
            <g id="Group-2" transform="translate(278.000000, 215.000000)">
                <g id="Page-1">
                    <polygon id="Fill-1" fill="#2196F3" points="21.156 32.551 29.031 32.551 29.031 12.75 21.156 12.75"></polygon>
                    <path d="M17.129,50.816 C14.879,49.723 12.629,49.07 12.629,47.156 C12.696,45.738 13.895,44.641 15.313,44.703 C16.696,44.769 17.969,45.465 18.77,46.594 L20.864,43.594 C19.653,42.055 17.856,41.098 15.907,40.953 L15.907,38 L13.657,38 L13.657,40.902 C10.282,41.523 8.278,44.09 8.278,47.562 C8.278,51.156 10.528,52.527 12.719,53.562 C14.911,54.598 17.161,55.308 17.161,57.5 C17.25,59.219 15.879,60.66 14.161,60.656 C12.067,60.656 10.657,59.027 9.782,57.312 L7,59.996 C8.559,62.867 10.407,64.25 13.692,64.617 L13.692,67.617 L15.942,67.617 L15.942,64.496 C19.536,63.746 21.625,60.746 21.625,57.152 C21.59,53.433 19.379,51.902 17.129,50.816 L17.129,50.816 Z" id="Fill-2" fill="#2196F3"></path>
                    <polygon id="Fill-3" fill="#2196F3" points="10.34 32.551 18.215 32.551 18.215 17.242 10.34 17.242"></polygon>
                    <polygon id="Fill-4" fill="#2196F3" points="42.777 32.551 50.652 32.551 50.652 5.348 42.777 5.348"></polygon>
                    <polygon id="Fill-5" fill="#2196F3" points="31.969 32.543 39.844 32.543 39.844 19.746 31.969 19.746"></polygon>
                    <path d="M50.536,61 L28.5,61 C26.5,61 26.5,64 28.5,64 L50.536,64 C52.536,64 52.536,61 50.536,61 L50.536,61 Z" id="Fill-6" fill="#DFDFDF"></path>
                    <path d="M50.536,41 L28.5,41 C26.5,41 26.5,44 28.5,44 L50.536,44 C52.536,44 52.536,41 50.536,41 L50.536,41 Z" id="Fill-7" fill="#DFDFDF"></path>
                    <path d="M50.536,48 L28.5,48 C26.5,48 26.5,51 28.5,51 L50.536,51 C52.536,51 52.536,48 50.536,48 L50.536,48 Z" id="Fill-9" fill="#DFDFDF"></path>
                    <path d="M50.536,55 L28.5,55 C26.5,55 26.5,58 28.5,58 L50.536,58 C52.536,58 52.536,55 50.536,55 L50.536,55 Z" id="Fill-10" fill="#DFDFDF"></path>
                    <path d="M56.5322857,1.5 L56.5322857,1.5 C57.9047714,1.492 59.0214286,2.453 59.0214286,3.645 L59.0214286,71.355 C59.0214286,72.547 57.9047714,73.508 56.5322857,73.5 L4.46771429,73.5 C3.09522857,73.508 1.97857143,72.547 1.97857143,71.355 L1.97857143,3.645 C1.97857143,2.453 3.09522857,1.492 4.46771429,1.5 L56.5322857,1.5 L56.5322857,1.5 Z M56.5322857,-1.0658141e-14 L4.46771429,-1.0658141e-14 C2.14105714,-0.008 0.25,1.625 0.25,3.645 L0.25,71.355 C0.25,73.375 2.14105714,75.008 4.46771429,75 L56.5322857,75 C58.8589429,75.008 60.75,73.375 60.75,71.355 L60.75,3.645 C60.75,1.625 58.8589429,-0.008 56.5322857,-1.0658141e-14 L56.5322857,-1.0658141e-14 Z" id="Fill-11" fill="#DEDEDE"></path>
                </g>
            </g>
        </g>
    </g>
</svg>