<?xml version="1.0" encoding="utf-8"?>
<!-- Generator: Adobe Illustrator 19.1.0, SVG Export Plug-In . SVG Version: 6.00 Build 0)  -->
<svg version="1.1" id="Layer_1" xmlns="http://www.w3.org/2000/svg" xmlns:xlink="http://www.w3.org/1999/xlink" x="0px" y="0px"
	 viewBox="0 0 136.9 85.1" style="enable-background:new 0 0 136.9 85.1;" xml:space="preserve">
<style type="text/css">
	.st0{fill-rule:evenodd;clip-rule:evenodd;fill:#FFFFFF;}
	.st1{fill:#FFFFFF;}
</style>
<g id="Logo">
	<path class="st0" d="M30.1,27.5c0,0,11.2-8.4,14.9-7.6l56.7-0.4L73,68.4c-2.9,4.2-14,9.1-14,9.1l3.7-35.5L30.1,27.5z"/>
	<g>
		<path class="st1" d="M31,85.1c-1.1-1-2.2-1.9-3.2-3C17.4,71.7,10.9,57.4,10.9,41.6v-0.1c0-15.8,6.4-30.2,16.8-40.6
			c0.3-0.3,0.7-0.6,1-0.9H14.1C5.2,11.5,0,25.9,0,41.6v0.1c0,16.5,5.9,31.7,15.7,43.5H31z"/>
		<path class="st1" d="M125.9,41.6L125.9,41.6L125.9,41.6L125.9,41.6c0,15.8-6.5,30.2-16.9,40.6c-1,1-2.1,2-3.2,3h15.3
			c9.8-11.8,15.7-27,15.7-43.5h0.1v-0.1h-0.1c0-15.6-5.2-30-14.1-41.6h-14.7c0.3,0.3,0.7,0.6,1,0.9
			C119.4,11.4,125.9,25.7,125.9,41.6z"/>
	</g>
</g>
</svg>
