<?xml version="1.0" encoding="UTF-8" standalone="no"?>
<svg width="52px" height="52px" viewBox="0 0 52 52" version="1.1" xmlns="http://www.w3.org/2000/svg" xmlns:xlink="http://www.w3.org/1999/xlink">
    <!-- Generator: Sketch 40.1 (33804) - http://www.bohemiancoding.com/sketch -->
    <title>Group 13</title>
    <desc>Created with Sketch.</desc>
    <defs></defs>
    <g id="Page-1" stroke="none" stroke-width="1" fill="none" fill-rule="evenodd" opacity="0.54">
        <g id="DSP-Home" transform="translate(-1050.000000, -896.000000)" fill="#000000">
            <g id="Group-16" transform="translate(228.000000, 802.000000)">
                <g id="Group-13" transform="translate(822.000000, 94.000000)">
                    <g id="Group-11-Copy" transform="translate(9.503448, 21.493333)">
                        <g id="Page-1" transform="translate(19.923777, 0.000000)">
                            <path d="M0.0910965269,4.93961481 L0.0910965269,4.99758519 L4.40223489,4.99758519 C6.36415234,4.99758519 6.79385293,3.91425185 6.79385293,3.91425185 L0.205110419,3.91425185 C0.133493653,4.24685926 0.0910965269,4.59371852 0.0910965269,4.93961481 L0.0910965269,4.93961481 Z" id="Fill-1"></path>
                            <path d="M0.290859561,3.56739259 L6.85133733,3.56739259 C8.81325477,3.56739259 9.24295537,2.67222222 9.24295537,2.67222222 L0.648943393,2.67222222 C0.50570986,2.94685926 0.377563593,3.25 0.290859561,3.56739259 L0.290859561,3.56739259 Z" id="Fill-2"></path>
                            <path d="M4.43049964,0.0579703704 C3.57109844,0.158696296 2.78331401,0.477051852 2.12463074,0.953140741 L11.0767265,0.953140741 C13.038644,0.953140741 13.4683446,0.0579703704 13.4683446,0.0579703704 L4.43049964,0.0579703704 Z" id="Fill-3"></path>
                            <path d="M0.863793693,2.29685926 L8.92822355,2.29685926 C10.890141,2.29685926 11.3198416,1.4014963 11.3198416,1.4014963 L1.57996136,1.4014963 C1.30858156,1.67536296 1.06451162,1.9785037 0.863793693,2.29685926 L0.863793693,2.29685926 Z" id="Fill-4"></path>
                        </g>
                        <g id="Page-1-Copy" transform="translate(7.976912, 2.882248) scale(-1, 1) translate(-7.976912, -2.882248) translate(0.804499, 0.192593)">
                            <path d="M0.0910965269,4.93961481 L0.0910965269,4.99758519 L4.40223489,4.99758519 C6.36415234,4.99758519 6.79385293,3.91425185 6.79385293,3.91425185 L0.205110419,3.91425185 C0.133493653,4.24685926 0.0910965269,4.59371852 0.0910965269,4.93961481 L0.0910965269,4.93961481 Z" id="Fill-1"></path>
                            <path d="M0.290859561,3.56739259 L6.85133733,3.56739259 C8.81325477,3.56739259 9.24295537,2.67222222 9.24295537,2.67222222 L0.648943393,2.67222222 C0.50570986,2.94685926 0.377563593,3.25 0.290859561,3.56739259 L0.290859561,3.56739259 Z" id="Fill-2"></path>
                            <path d="M4.43049964,0.0579703704 C3.57109844,0.158696296 2.78331401,0.477051852 2.12463074,0.953140741 L11.0767265,0.953140741 C13.038644,0.953140741 13.4683446,0.0579703704 13.4683446,0.0579703704 L4.43049964,0.0579703704 Z" id="Fill-3"></path>
                            <path d="M0.863793693,2.29685926 L8.92822355,2.29685926 C10.890141,2.29685926 11.3198416,1.4014963 11.3198416,1.4014963 L1.57996136,1.4014963 C1.30858156,1.67536296 1.06451162,1.9785037 0.863793693,2.29685926 L0.863793693,2.29685926 Z" id="Fill-4"></path>
                        </g>
                        <g id="Group-9" transform="translate(14.385414, 0.577778)">
                            <g id="dd-blk-logo">
                                <g id="Layer_1">
                                    <g id="Group">
                                        <g id="Logo">
                                            <path d="M2.03328359,2.13249211 L4.59522091,2.11426569 L3.29843782,4.34244655 C3.16740399,4.53382404 2.66586071,4.75709779 2.66586071,4.75709779 L2.8330418,3.13950228 L1.3600408,2.47879425 C1.3600408,2.47879425 1.8661025,2.09603926 2.03328359,2.13249211 Z" id="Shape"></path>
                                            <path d="M3.09059106,0 L3.09059106,0 L3.09059106,0 C3.94457017,0 4.71721793,0.350858745 5.27750052,0.911321416 C5.83778311,1.47634069 6.18118212,2.2555205 6.18118212,3.11671924 L6.18570052,3.11671924 L6.18570052,3.11671924 L6.18570052,3.12127585 L6.18118212,3.12127585 C6.18118212,3.97791798 5.83778311,4.75709779 5.27750052,5.31756046 C4.71721793,5.88257974 3.94908857,6.23343849 3.09059106,6.23343849 L3.09059106,6.23343849 L3.09059106,6.23343849 L3.09059106,5.73676831 L3.09059106,5.73676831 L3.09059106,5.73676831 C3.80449952,5.73676831 4.45515027,5.44058885 4.9250647,4.97125832 C5.39497913,4.49737119 5.68867565,3.84121977 5.68867565,3.12583246 L5.68415724,3.12583246 L5.68415724,3.12127585 L5.68415724,3.12127585 L5.68867565,3.12127585 C5.68867565,2.40133193 5.39497913,1.74518051 4.92958311,1.27129338 C4.45515027,0.792849632 3.80449952,0.496670172 3.09059106,0.496670172 L3.09059106,0.496670172 L3.09059106,0.496670172 L3.09059106,0 L3.09059106,0 Z M3.09059106,6.23343849 L3.09059106,6.23343849 L3.09059106,6.23343849 C2.23661195,6.23343849 1.46396419,5.88257974 0.903681596,5.31756046 C0.343399006,4.75709779 0,3.97791798 0,3.12127585 L0,3.12127585 L0,3.11671924 L0,3.11671924 L0,3.11671924 C0,2.2555205 0.343399006,1.47634069 0.903681596,0.911321416 C1.46396419,0.350858745 2.23661195,0 3.09059106,0 L3.09059106,0 L3.09059106,0 L3.09059106,0.496670172 L3.09059106,0.496670172 L3.09059106,0.496670172 C2.3766826,0.496670172 1.72603185,0.788293025 1.25611742,1.26218016 C0.786202988,1.7406239 0.49250647,2.39677532 0.49250647,3.11671924 L0.49250647,3.11671924 L0.49250647,3.11671924 L0.49250647,3.12127585 L0.49250647,3.12127585 C0.49250647,3.84121977 0.78168458,4.49281458 1.25159901,4.96670172 C1.72151344,5.44058885 2.37216419,5.73221171 3.08607265,5.73221171 L3.08607265,5.73221171 L3.08607265,5.73221171 L3.08607265,6.23343849 L3.09059106,6.23343849 Z" id="Shape"></path>
                                        </g>
                                    </g>
                                </g>
                            </g>
                        </g>
                    </g>
                    <path d="M46.1205333,16.42368 L46.1205333,14.7062933 L37.2125867,5.79072 L32.5596267,5.79072 L32.6005333,5.73109333 L26,0.517226667 L19.3266667,5.79072 L5.87946667,5.79072 L5.87946667,16.4125867 L0.203146667,20.8922133 L0.203146667,51.47168 L51.7968533,51.47168 L51.7968533,20.8922133 L46.1205333,16.42368 Z M39.9048,38.4827733 L38.7261333,39.6607467 L48.9424,49.8062933 L3.0472,49.8062933 L13.2627733,39.60944 L12.0848,38.4418667 L1.86853333,48.63872 L1.86853333,22.9528 L26,41.6110933 L50.1314667,22.9229867 L50.1314667,48.64704 L39.9048,38.4827733 Z M37.7,8.63408 L43.27648,14.21056 L37.7,14.21056 L37.7,8.63408 Z M49.5733333,21.2576 L46.1309333,23.92832 L46.1309333,18.5438933 L49.5733333,21.2576 Z M26,2.64090667 L29.9922133,5.78794667 L22.0077867,5.78794667 L26,2.64090667 Z M36.0346133,7.45333333 L36.0346133,15.8738667 L44.4544533,15.8738667 L44.4544533,25.2061333 L26,39.5089067 L7.54554667,25.23872 L7.54554667,7.4672 L36.0346133,7.4672 L36.0346133,7.45333333 Z M5.87946667,23.94704 L2.41557333,21.26592 L5.87946667,18.5328 L5.87946667,23.94704 Z" id="Fill-3"></path>
                    <polygon id="Fill-4" points="10.18576 11.56688 11.8511467 11.56688 11.8511467 9.90149333 10.18576 9.90149333"></polygon>
                    <polygon id="Fill-5" points="13.5172267 11.56688 15.1826133 11.56688 15.1826133 9.90149333 13.5172267 9.90149333"></polygon>
                    <polygon id="Fill-6" points="16.8486933 11.56688 18.51408 11.56688 18.51408 9.90149333 16.8486933 9.90149333"></polygon>
                    <polygon id="Path-2" points="51.3066667 22.88 51.3066667 50.6133333 1.38666667 50.6133333 1.38666667 21.4933333 26.3466667 40.9066667 50.6133333 21.4933333"></polygon>
                </g>
            </g>
        </g>
    </g>
</svg>