<?xml version="1.0" encoding="UTF-8" standalone="no"?>
<svg width="159px" height="34px" viewBox="0 0 159 34" version="1.1" xmlns="http://www.w3.org/2000/svg" xmlns:xlink="http://www.w3.org/1999/xlink">
    <!-- Generator: Sketch 40.1 (33804) - http://www.bohemiancoding.com/sketch -->
    <title>Group 11</title>
    <desc>Created with Sketch.</desc>
    <defs></defs>
    <g id="Page-1" stroke="none" stroke-width="1" fill="none" fill-rule="evenodd" opacity="0.54">
        <g id="DSP-Home" transform="translate(-646.000000, -914.000000)" fill="#000000">
            <g id="Group-16" transform="translate(228.000000, 802.000000)">
                <g id="Group-11" transform="translate(417.000000, 112.000000)">
                    <g id="Page-1" transform="translate(92.401198, 0.000000)">
                        <path d="M0.454149701,24.2231111 L0.454149701,24.5073889 L21.9467605,24.5073889 C31.7276407,24.5073889 33.8698563,19.1948889 33.8698563,19.1948889 L1.0225509,19.1948889 C0.66551497,20.8259444 0.454149701,22.5268889 0.454149701,24.2231111 L0.454149701,24.2231111 Z" id="Fill-1"></path>
                        <path d="M1.45004192,17.4939444 L34.1564371,17.4939444 C43.9373174,17.4939444 46.0795329,13.1041667 46.0795329,13.1041667 L3.23522156,13.1041667 C2.5211497,14.4509444 1.88229341,15.9375 1.45004192,17.4939444 L1.45004192,17.4939444 Z" id="Fill-2"></path>
                        <path d="M22.0876707,0.284277778 C17.8032395,0.778222222 13.8758443,2.33938889 10.5920659,4.67405556 L55.2215569,4.67405556 C65.0024371,4.67405556 67.1446527,0.284277778 67.1446527,0.284277778 L22.0876707,0.284277778 Z" id="Fill-3"></path>
                        <path d="M4.30632934,11.2634444 L44.510479,11.2634444 C54.2913593,11.2634444 56.4335749,6.87272222 56.4335749,6.87272222 L7.87668862,6.87272222 C6.52376048,8.21572222 5.30698204,9.70227778 4.30632934,11.2634444 L4.30632934,11.2634444 Z" id="Fill-4"></path>
                    </g>
                    <g id="Page-1-Copy" transform="translate(34.598802, 13.444444) scale(-1, 1) translate(-34.598802, -13.444444) translate(0.598802, 0.944444)">
                        <path d="M0.454149701,24.2231111 L0.454149701,24.5073889 L21.9467605,24.5073889 C31.7276407,24.5073889 33.8698563,19.1948889 33.8698563,19.1948889 L1.0225509,19.1948889 C0.66551497,20.8259444 0.454149701,22.5268889 0.454149701,24.2231111 L0.454149701,24.2231111 Z" id="Fill-1"></path>
                        <path d="M1.45004192,17.4939444 L34.1564371,17.4939444 C43.9373174,17.4939444 46.0795329,13.1041667 46.0795329,13.1041667 L3.23522156,13.1041667 C2.5211497,14.4509444 1.88229341,15.9375 1.45004192,17.4939444 L1.45004192,17.4939444 Z" id="Fill-2"></path>
                        <path d="M22.0876707,0.284277778 C17.8032395,0.778222222 13.8758443,2.33938889 10.5920659,4.67405556 L55.2215569,4.67405556 C65.0024371,4.67405556 67.1446527,0.284277778 67.1446527,0.284277778 L22.0876707,0.284277778 Z" id="Fill-3"></path>
                        <path d="M4.30632934,11.2634444 L44.510479,11.2634444 C54.2913593,11.2634444 56.4335749,6.87272222 56.4335749,6.87272222 L7.87668862,6.87272222 C6.52376048,8.21572222 5.30698204,9.70227778 4.30632934,11.2634444 L4.30632934,11.2634444 Z" id="Fill-4"></path>
                    </g>
                    <g id="Group-9" transform="translate(64.790419, 2.833333)">
                        <g id="dd-blk-logo">
                            <g id="Layer_1">
                                <g id="Group">
                                    <g id="Logo">
                                        <path d="M10.1366667,10.4574132 L22.9088668,10.3680336 L16.443926,21.2946898 C15.7906742,22.2331756 13.2902964,23.3280757 13.2902964,23.3280757 L14.1237556,15.3956362 L6.78030375,12.1556257 C6.78030375,12.1556257 9.30320747,10.278654 10.1366667,10.4574132 Z" id="Shape"></path>
                                        <path d="M15.4077334,0 L15.4077334,0 L15.4077334,0 C19.6651335,0 23.5170668,1.72055731 26.3102816,4.46898002 C29.1034965,7.23974763 30.8154669,11.0607256 30.8154669,15.2839117 L30.8379928,15.2839117 L30.8379928,15.2839117 L30.8379928,15.3062566 L30.8154669,15.3062566 C30.8154669,19.5070978 29.1034965,23.3280757 26.3102816,26.0764984 C23.5170668,28.847266 19.6876594,30.5678233 15.4077334,30.5678233 L15.4077334,30.5678233 L15.4077334,30.5678233 L15.4077334,28.1322292 L15.4077334,28.1322292 L15.4077334,28.1322292 C18.9668297,28.1322292 22.2105631,26.6798107 24.5532594,24.378286 C26.8959557,22.0544164 28.3601409,18.8367508 28.3601409,15.3286015 L28.337615,15.3286015 L28.337615,15.3062566 L28.337615,15.3062566 L28.3601409,15.3062566 C28.3601409,11.7757624 26.8959557,8.55809674 24.5757853,6.23422713 C22.2105631,3.88801262 18.9668297,2.43559411 15.4077334,2.43559411 L15.4077334,2.43559411 L15.4077334,2.43559411 L15.4077334,0 L15.4077334,0 Z M15.4077334,30.5678233 L15.4077334,30.5678233 L15.4077334,30.5678233 C11.1503334,30.5678233 7.29840005,28.847266 4.50518521,26.0764984 C1.71197038,23.3280757 0,19.5070978 0,15.3062566 L0,15.3062566 L0,15.2839117 L0,15.2839117 L0,15.2839117 C0,11.0607256 1.71197038,7.23974763 4.50518521,4.46898002 C7.29840005,1.72055731 11.1503334,0 15.4077334,0 L15.4077334,0 L15.4077334,0 L15.4077334,2.43559411 L15.4077334,2.43559411 L15.4077334,2.43559411 C11.8486371,2.43559411 8.60490376,3.86566772 6.26220745,6.18953733 C3.91951114,8.53575184 2.45532594,11.7534175 2.45532594,15.2839117 L2.45532594,15.2839117 L2.45532594,15.2839117 L2.45532594,15.3062566 L2.45532594,15.3062566 C2.45532594,18.8367508 3.89698521,22.0320715 6.23968152,24.3559411 C8.58237783,26.6798107 11.8261112,28.1098843 15.3852075,28.1098843 L15.3852075,28.1098843 L15.3852075,28.1098843 L15.3852075,30.5678233 L15.4077334,30.5678233 Z" id="Shape"></path>
                                    </g>
                                </g>
                            </g>
                        </g>
                    </g>
                </g>
            </g>
        </g>
    </g>
</svg>