<?xml version="1.0" encoding="UTF-8" standalone="no"?>
<svg width="20px" height="20px" viewBox="0 0 20 20" version="1.1" xmlns="http://www.w3.org/2000/svg" xmlns:xlink="http://www.w3.org/1999/xlink">
    <!-- Generator: Sketch 3.7.2 (28276) - http://www.bohemiancoding.com/sketch -->
    <title>instagram-icn copy 3</title>
    <desc>Created with Sketch.</desc>
    <defs></defs>
    <g id="Page-1" stroke="none" stroke-width="1" fill="none" fill-rule="evenodd">
        <g id="Desktop-HD-Copy" transform="translate(-740.000000, -4828.000000)" fill="#4A4A4A">
            <g id="instagram-icn-copy-3" transform="translate(740.000000, 4828.000000)">
                <g id="Layer_1">
                    <path d="M17.4827586,0 L2.36206897,0 C1.05172414,0 0,1.05172414 0,2.36206897 L0,17.4827586 C0,18.7931034 1.05172414,19.8448276 2.36206897,19.8448276 L17.4827586,19.8448276 C18.7758621,19.8448276 19.8448276,18.7931034 19.8448276,17.4827586 L19.8448276,2.36206897 C19.8275862,1.05172414 18.7758621,0 17.4827586,0 L17.4827586,0 Z M9.89655172,6.15517241 C12,6.15517241 13.7241379,7.86206897 13.7241379,9.98275862 C13.7241379,12.0862069 12.0172414,13.8103448 9.89655172,13.8103448 C7.77586207,13.8103448 6.06896552,12.1034483 6.06896552,9.98275862 C6.0862069,7.87931034 7.79310345,6.15517241 9.89655172,6.15517241 L9.89655172,6.15517241 Z M17.5517241,16.862069 C17.5517241,17.2758621 17.2068966,17.6206897 16.7931034,17.6206897 L3.03448276,17.6206897 C2.60344828,17.6206897 2.27586207,17.2758621 2.27586207,16.862069 L2.27586207,8.44827586 L4.01724138,8.44827586 C3.89655172,8.93103448 3.81034483,9.44827586 3.81034483,9.98275862 C3.81034483,13.362069 6.55172414,16.0862069 9.9137931,16.0862069 C13.2758621,16.0862069 16.0344828,13.3448276 16.0344828,9.98275862 C16.0344828,9.44827586 15.9655172,8.93103448 15.8275862,8.44827586 L17.5517241,8.44827586 L17.5517241,16.862069 L17.5517241,16.862069 L17.5517241,16.862069 Z M17.5517241,5.39655172 C17.5517241,5.82758621 17.2068966,6.15517241 16.7931034,6.15517241 L14.5,6.15517241 C14.0689655,6.15517241 13.7413793,5.81034483 13.7413793,5.39655172 L13.7413793,3.10344828 C13.7413793,2.67241379 14.0862069,2.34482759 14.5,2.34482759 L16.7931034,2.34482759 C17.2241379,2.34482759 17.5517241,2.68965517 17.5517241,3.10344828 L17.5517241,5.39655172 L17.5517241,5.39655172 Z" id="Shape"></path>
                </g>
            </g>
        </g>
    </g>
</svg>