<?xml version="1.0" encoding="utf-8"?>
<!-- Generator: Adobe Illustrator 19.1.0, SVG Export Plug-In . SVG Version: 6.00 Build 0)  -->
<svg version="1.1" id="Layer_1" xmlns="http://www.w3.org/2000/svg" xmlns:xlink="http://www.w3.org/1999/xlink" x="0px" y="0px"
	 viewBox="0 0 26.9 30.5" style="enable-background:new 0 0 26.9 30.5;" xml:space="preserve">
<style type="text/css">
	.st0{fill:#5B6E85;}
</style>
<g>
	<path class="st0" d="M18.8,15.2c0,2.9-2.4,5.3-5.3,5.3s-5.3-2.4-5.3-5.3c0-0.4,0.1-0.8,0.1-1.2H6.5v7.4c0,0.4,0.3,0.7,0.7,0.7h12.5
		c0.4,0,0.7-0.3,0.7-0.7l0-7.4h-1.8C18.7,14.4,18.8,14.8,18.8,15.2z"/>
	<path class="st0" d="M13.5,18.9c2,0,3.7-1.6,3.7-3.6c0-2-1.6-3.6-3.7-3.6c-2,0-3.7,1.6-3.7,3.6C9.8,17.3,11.4,18.9,13.5,18.9z"/>
	<path class="st0" d="M17.8,11.6h1.6c0.4,0,0.7-0.3,0.7-0.6V9.4c0-0.4-0.3-0.6-0.7-0.6h-1.6c-0.4,0-0.7,0.3-0.7,0.6c0,0,0,1.5,0,1.5
		C17.1,11.3,17.4,11.6,17.8,11.6z"/>
	<path class="st0" d="M26,6.9C26,6.9,25.9,6.9,26,6.9L14.5,0.3l-0.2-0.1C14.1,0.1,13.8,0,13.5,0s-0.6,0.1-0.9,0.2l-0.2,0.1L1,6.9
		c0,0-0.1,0-0.1,0.1C0.4,7.3,0,7.9,0,8.6v13.3c0,0.7,0.4,1.3,0.9,1.6L1,23.6l11.4,6.6l0.2,0.1c0.3,0.1,0.6,0.2,0.9,0.2
		s0.6-0.1,0.9-0.2l0.2-0.1l11.4-6.6l0.1-0.1c0.5-0.3,0.9-0.9,0.9-1.6V8.6C26.9,7.9,26.5,7.3,26,6.9z M22,21.6c0,1.2-1,2.2-2.2,2.2
		H7.1c-1.2,0-2.2-1-2.2-2.2V8.9c0-1.2,1-2.2,2.2-2.2h12.7c1.2,0,2.2,1,2.2,2.2V21.6z"/>
</g>
</svg>
