<?xml version="1.0" encoding="utf-8"?>
<!-- Generator: Adobe Illustrator 19.1.0, SVG Export Plug-In . SVG Version: 6.00 Build 0)  -->
<svg version="1.1" id="Layer_1" xmlns="http://www.w3.org/2000/svg" xmlns:xlink="http://www.w3.org/1999/xlink" x="0px" y="0px"
	 viewBox="0 0 26.9 30.5" style="enable-background:new 0 0 26.9 30.5;" xml:space="preserve">
<style type="text/css">
	.st0{fill:#5C6F83;}
</style>
<path class="st0" d="M26,6.9C26,6.9,25.9,6.9,26,6.9L14.5,0.3l-0.2-0.1C14.1,0.1,13.8,0,13.5,0c-0.3,0-0.6,0.1-0.9,0.2l-0.2,0.1
	L1,6.9c0,0-0.1,0-0.1,0.1C0.4,7.3,0,7.9,0,8.6v13.3c0,0.7,0.4,1.3,0.9,1.6L1,23.6l11.4,6.6l0.2,0.1c0.3,0.1,0.6,0.2,0.9,0.2
	s0.6-0.1,0.9-0.2l0.2-0.1l11.4-6.6l0.1-0.1c0.5-0.3,0.9-0.9,0.9-1.6V8.6C26.9,7.9,26.5,7.3,26,6.9z M10.1,22.9H7V12h3.1V22.9z
	 M8.5,10.9C7.4,10.9,6.6,10,6.6,9S7.4,7,8.5,7s1.9,0.9,1.9,1.9S9.6,10.9,8.5,10.9z M20.9,22.9h-3.1v-6.6c0-0.3-0.3-0.8-0.5-0.9
	c-0.3-0.2-1-0.2-1.3,0l-1.3,0.6v6.9h-3.1V12h3.1v0.5c1.2-0.6,2.9-0.5,4.1,0.1c1.2,0.7,2.1,2.2,2.1,3.6V22.9z"/>
</svg>
