<?xml version="1.0" encoding="UTF-8" standalone="no"?>
<svg width="25px" height="20px" viewBox="0 0 25 20" version="1.1" xmlns="http://www.w3.org/2000/svg" xmlns:xlink="http://www.w3.org/1999/xlink">
    <!-- Generator: Sketch 3.7.2 (28276) - http://www.bohemiancoding.com/sketch -->
    <title>twitter-icn copy 3</title>
    <desc>Created with Sketch.</desc>
    <defs></defs>
    <g id="Page-1" stroke="none" stroke-width="1" fill="none" fill-rule="evenodd">
        <g id="Desktop-HD-Copy" transform="translate(-849.000000, -4826.000000)" fill="#4A4A4A">
            <g id="twitter-icn-copy-3" transform="translate(849.000000, 4826.000000)">
                <g id="Layer_1">
                    <g id="twitter-icon">
                        <path d="M24.484375,2.359375 C23.578125,2.765625 22.609375,3.03125 21.59375,3.15625 C22.625,2.53125 23.421875,1.546875 23.796875,0.375 C22.828125,0.953125 21.75,1.375 20.609375,1.59375 C19.703125,0.609375 18.40625,0 16.953125,0 C13.703125,0 11.328125,3.03125 12.0625,6.171875 C7.890625,5.953125 4.1875,3.96875 1.703125,0.921875 C0.390625,3.171875 1.015625,6.140625 3.265625,7.625 C2.4375,7.59375 1.671875,7.375 0.984375,7 C0.9375,9.328125 2.59375,11.515625 5.015625,12 C4.3125,12.1875 3.53125,12.234375 2.75,12.09375 C3.390625,14.09375 5.25,15.546875 7.4375,15.578125 C5.328125,17.21875 2.671875,17.953125 0,17.640625 C2.21875,19.0625 4.859375,19.890625 7.703125,19.890625 C17.03125,19.890625 22.296875,12.015625 21.984375,4.953125 C22.96875,4.25 23.8125,3.359375 24.484375,2.359375 L24.484375,2.359375 Z" id="Shape"></path>
                    </g>
                </g>
            </g>
        </g>
    </g>
</svg>